HIERARCHY
ROOT Hips
{
	OFFSET 0.000000 0.000000 0.000000
	CHANNELS 6 Xposition Yposition Zposition Zrotation Yrotation Xrotation
	JOINT LHipJoint
	{
		OFFSET 0.000000 0.000000 0.000000
		CHANNELS 6 Xposition Yposition Zposition Zrotation Yrotation Xrotation
		JOINT LeftHip
		{
			OFFSET -0.673180 -1.611894 -0.014919
			CHANNELS 3 Zrotation Yrotation Xrotation
			JOINT LeftKnee
			{
				OFFSET -0.000000 -0.014856 -7.518231
				CHANNELS 6 Xposition Yposition Zposition Zrotation Yrotation Xrotation
				JOINT LeftAnkle
				{
					OFFSET -0.000000 -0.014554 -7.368488
					CHANNELS 6 Xposition Yposition Zposition Zrotation Yrotation Xrotation
					JOINT LeftToe
					{
						OFFSET -2.102140 -0.001350 -0.681086
						CHANNELS 6 Xposition Yposition Zposition Zrotation Yrotation Xrotation
						End Site
						{
							OFFSET -1.101390 0.000000 0.000000
						}
					}
				}
			}
		}
	}
	JOINT RHipJoint
	{
		OFFSET 0.000000 0.000000 0.000000
		CHANNELS 6 Xposition Yposition Zposition Zrotation Yrotation Xrotation
		JOINT RightHip
		{
			OFFSET -0.673180 1.611894 -0.014919
			CHANNELS 3 Zrotation Yrotation Xrotation
			JOINT RightKnee
			{
				OFFSET -0.000000 0.014856 -7.518231
				CHANNELS 6 Xposition Yposition Zposition Zrotation Yrotation Xrotation
				JOINT RightAnkle
				{
					OFFSET -0.000000 0.014554 -7.368488
					CHANNELS 6 Xposition Yposition Zposition Zrotation Yrotation Xrotation
					JOINT RightToe
					{
						OFFSET -2.102140 0.001351 -0.681086
						CHANNELS 6 Xposition Yposition Zposition Zrotation Yrotation Xrotation
						End Site
						{
							OFFSET -1.101390 0.000000 0.000000
						}
					}
				}
			}
		}
	}
	JOINT lowerback
	{
		OFFSET 0.000000 0.000000 0.000000
		CHANNELS 6 Xposition Yposition Zposition Zrotation Yrotation Xrotation
		JOINT Chest
		{
			OFFSET 0.169810 0.021080 2.075730
			CHANNELS 3 Zrotation Yrotation Xrotation
			JOINT Chest2
			{
				OFFSET 0.031410 -0.050700 2.084390
				CHANNELS 6 Xposition Yposition Zposition Zrotation Yrotation Xrotation
				JOINT lowerneck
				{
					OFFSET 0.000000 0.000000 0.000000
					CHANNELS 6 Xposition Yposition Zposition Zrotation Yrotation Xrotation
					JOINT Neck
					{
						OFFSET -0.313700 0.107310 1.604080
						CHANNELS 3 Zrotation Yrotation Xrotation
						JOINT Head
						{
							OFFSET 0.308220 -0.084110 1.656790
							CHANNELS 6 Xposition Yposition Zposition Zrotation Yrotation Xrotation
							End Site
							{
								OFFSET 0.141460 -0.039110 1.691490
							}
						}
					}
				}
				JOINT LeftCollar
				{
					OFFSET 0.000000 0.000000 0.000000
					CHANNELS 6 Xposition Yposition Zposition Zrotation Yrotation Xrotation
					JOINT LeftShoulder
					{
						OFFSET 0.546940 -2.210152 0.732190
						CHANNELS 3 Zrotation Xrotation Yrotation
						JOINT LeftElbow
						{
							OFFSET -0.000001 -4.208010 0.067693
							CHANNELS 6 Xposition Yposition Zposition Zrotation Xrotation Yrotation
							JOINT LeftWrist
							{
								OFFSET -0.000001 -4.447774 0.107699
								CHANNELS 6 Xposition Yposition Zposition Zrotation Xrotation Yrotation
								JOINT lhand
								{
									OFFSET 0.000000 0.000000 0.000000
									CHANNELS 6 Xposition Yposition Zposition Zrotation Xrotation Yrotation
									JOINT LFingers
									{
										OFFSET -0.000000 -0.572473 -0.002868
										CHANNELS 3 Zrotation Xrotation Yrotation
										End Site
										{
											OFFSET -0.000000 -0.461535 -0.002313
										}
									}
								}
								JOINT LThumb
								{
									OFFSET 0.000000 0.000000 0.000000
									CHANNELS 6 Xposition Yposition Zposition Zrotation Xrotation Yrotation
									End Site
									{
										OFFSET -0.468590 -0.468585 -0.002347
									}
								}
							}
						}
					}
				}
				JOINT RightCollar
				{
					OFFSET 0.000000 0.000000 0.000000
					CHANNELS 6 Xposition Yposition Zposition Zrotation Yrotation Xrotation
					JOINT RightShoulder
					{
						OFFSET 0.546940 2.269392 0.732190
						CHANNELS 3 Zrotation Xrotation Yrotation
						JOINT RightElbow
						{
							OFFSET -0.000001 4.208010 0.067693
							CHANNELS 6 Xposition Yposition Zposition Zrotation Xrotation Yrotation
							JOINT RightWrist
							{
								OFFSET -0.000001 4.447774 0.107699
								CHANNELS 6 Xposition Yposition Zposition Zrotation Xrotation Yrotation
								JOINT rhand
								{
									OFFSET 0.186255 0.100282 0.019922
									CHANNELS 6 Xposition Yposition Zposition Zrotation Xrotation Yrotation
									JOINT RFingers
									{
										OFFSET -0.000000 0.731912 -0.065197
										CHANNELS 3 Zrotation Xrotation Yrotation
										End Site
										{
											OFFSET -0.000000 0.590084 -0.052564
										}
									}
								}
								JOINT RThumb
								{
									OFFSET 0.186255 0.100282 0.019922
									CHANNELS 6 Xposition Yposition Zposition Zrotation Xrotation Yrotation
									End Site
									{
										OFFSET -0.601470 0.599097 -0.053367
									}
								}
							}
						}
					}
				}
			}
		}
	}
}
MOTION
Frames: 4
Frame Time: 0.033333
-0.290417 -0.121260 14.488388 -5.786918 -7.699364 4.774893 0.000000 0.000000 -0.000001 -0.000000 0.000002 -0.000001 -0.602085 46.351016 -10.316208 -0.000000 -0.014856 -7.518231 -12.440774 -125.571498 11.693981 -0.000001 -0.014554 -7.368489 2.811180 -1.156811 -5.024685 -2.102139 -0.001350 -0.681084 -0.000002 0.000000 -0.000021 -0.000000 -0.000000 -0.000001 0.000001 -0.000001 0.000001 -5.319822 0.550085 -7.005991 0.000001 0.014856 -7.518229 10.151240 -33.193107 -1.602549 -0.000001 0.014554 -7.368487 8.167475 10.860907 9.648009 -2.102140 0.001350 -0.681086 0.000017 31.272315 0.000034 -0.000000 -0.000000 -0.000002 14.666388 -12.652820 -5.105032 1.780233 3.414888 -1.241070 0.031410 -0.050700 2.084389 1.784087 3.370466 -1.115793 0.000000 0.000000 -0.000001 -2.490452 -4.380920 3.248403 0.000002 0.000001 0.000001 0.308220 -0.084110 1.656790 -7.078283 19.662617 -2.109846 -0.000000 -0.000000 -0.000002 -8.378615 -2.608559 4.465070 61.971584 23.769664 -73.788630 -0.000004 -4.208009 0.067693 -72.400565 0.000027 -0.000007 -0.000001 -4.447773 0.107698 3.614455 2.385180 9.376316 0.000001 0.000003 0.000001 -0.000002 -0.000000 -0.000001 0.000000 -0.000001 -0.000001 0.000001 0.000002 0.000002 0.000001 0.000001 -0.000001 0.000000 -0.000001 0.000002 4.791344 -1.406351 -4.248467 24.422849 -48.155197 19.967682 -0.000001 4.208014 0.067693 92.441781 -0.000085 0.000053 -0.000001 4.447774 0.107700 0.533267 21.369987 14.312099 0.186256 0.100283 0.019922 0.000002 -0.000000 0.000001 0.000000 -0.000000 -0.000001 0.186255 0.100283 0.019922 0.000002 0.000003 -0.000000 
-3.511856 -0.085286 14.747432 -4.907312 -8.215568 3.012862 -0.000000 0.000000 0.000001 -0.000003 0.000001 0.000001 -10.169330 57.415240 -15.248329 -0.000000 -0.014856 -7.518230 -30.018965 -103.574703 34.448469 0.000000 -0.014554 -7.368490 0.302746 -7.781473 -10.703959 -2.102139 -0.001350 -0.681084 -0.000004 -0.014838 -0.000022 -0.000001 -0.000000 0.000001 0.000004 -0.000002 0.000001 -3.797081 -17.763879 -3.869222 0.000000 0.014856 -7.518230 10.295202 -13.477563 2.090015 -0.000001 0.014554 -7.368487 3.793934 -19.790448 -4.516712 -2.102142 0.001351 -0.681085 0.024230 35.739747 1.362368 -0.000000 -0.000000 -0.000000 16.025581 -8.457904 -2.274879 1.996141 2.032422 -1.129667 0.031410 -0.050700 2.084389 1.992032 2.060761 -1.000814 -0.000000 0.000000 -0.000002 -3.134468 -5.749141 3.133271 0.000002 0.000000 0.000001 0.308221 -0.084110 1.656790 -10.484663 17.623683 -2.866366 -0.000001 0.000000 -0.000003 -8.118655 -2.524583 3.475343 63.348386 15.723871 -73.262986 -0.000004 -4.208009 0.067693 -81.523827 0.000007 0.000022 -0.000000 -4.447778 0.107699 7.494782 5.192354 13.412574 -0.000000 0.000002 -0.000001 -0.000001 -0.000000 -0.000001 0.000000 0.000001 -0.000001 0.000000 0.000001 -0.000000 -0.000003 0.000001 -0.000001 -0.000000 -0.000001 0.000001 4.200196 -1.293886 -3.294389 20.681383 -46.115996 15.833314 0.000000 4.208009 0.067696 112.087154 -0.000029 0.000073 0.000000 4.447774 0.107700 -17.313090 18.735931 3.465585 0.186256 0.100284 0.019921 0.000001 0.000000 0.000001 -0.000000 -0.000003 -0.000001 0.186256 0.100283 0.019922 0.000003 0.000005 -0.000001 
-6.504876 -0.031936 15.080143 -3.884188 -9.843331 1.772617 0.000000 0.000000 -0.000000 -0.000001 0.000003 0.000002 -15.427767 57.129662 -17.768708 -0.000001 -0.014856 -7.518232 34.151554 -72.640940 -24.067954 -0.000002 -0.014554 -7.368485 -0.029743 -1.173577 -8.628836 -2.102139 -0.001350 -0.681085 -0.000004 0.151225 -0.000019 -0.000000 -0.000000 -0.000000 0.000001 -0.000001 0.000001 -5.175167 -18.985467 -3.383891 0.000000 0.014856 -7.518231 6.007078 -24.610176 5.879069 0.000000 0.014554 -7.368487 2.920079 -30.249528 -14.083791 -2.102139 0.001350 -0.681087 0.000012 -2.184022 0.000019 0.000000 -0.000000 -0.000001 16.659543 -4.076840 -0.470043 2.149184 0.545406 -0.540459 0.031411 -0.050700 2.084391 2.151351 0.619658 -0.470645 -0.000000 0.000000 -0.000001 -3.542335 -5.188347 2.913685 0.000001 0.000002 0.000002 0.308221 -0.084110 1.656787 -12.659973 15.980047 -3.056297 -0.000001 -0.000000 -0.000003 -8.013165 -2.486009 2.899058 65.186581 15.521613 -71.280476 -0.000002 -4.208010 0.067692 -82.416976 0.000031 0.000015 -0.000001 -4.447773 0.107697 7.855419 3.659180 16.744912 0.000000 0.000002 -0.000000 -0.000000 0.000000 0.000000 0.000002 -0.000000 -0.000000 0.000001 -0.000000 -0.000000 0.000002 0.000003 0.000000 -0.000000 -0.000001 0.000001 3.937119 -1.243233 -3.122986 16.677001 -48.426806 10.052059 -0.000000 4.208010 0.067695 121.714982 -0.000043 0.000079 0.000001 4.447773 0.107698 -22.803229 17.447561 -5.870489 0.186250 0.100284 0.019922 0.000003 -0.000003 -0.000000 0.000002 0.000001 -0.000003 0.186250 0.100284 0.019923 0.000006 0.000000 -0.000000 
-9.422570 0.010002 15.272987 -3.211814 -10.263116 1.908442 0.000001 0.000000 -0.000000 -0.000003 0.000001 0.000001 -14.094439 51.457665 -14.967258 -0.000002 -0.014855 -7.518231 12.843608 -45.984143 -1.289053 -0.000001 -0.014555 -7.368489 -0.128011 5.151997 -1.943801 -2.102140 -0.001350 -0.681084 -0.000005 0.307491 -0.000019 0.000001 -0.000000 -0.000000 0.000006 -0.000002 0.000001 -6.722396 -17.795368 -1.977233 0.000001 0.014856 -7.518233 13.111638 -43.646070 -0.518549 -0.000000 0.014554 -7.368488 4.117254 -26.690916 -14.232581 -2.102140 0.001351 -0.681087 0.000012 0.477399 0.000016 0.000000 -0.000000 -0.000001 16.793340 -2.658938 -1.070892 2.204832 -0.065969 0.176159 0.031410 -0.050700 2.084392 2.197065 -0.074387 0.169673 0.000001 0.000001 -0.000004 -3.671453 -3.554611 3.036502 0.000001 0.000004 0.000001 0.308222 -0.084110 1.656789 -13.423898 15.719764 -3.415173 0.000000 0.000000 -0.000006 -8.649480 -2.662747 4.215636 66.115029 22.581577 -67.592092 -0.000007 -4.208009 0.067692 -77.670883 -0.000016 0.000027 -0.000001 -4.447773 0.107698 3.726859 -3.521921 18.231208 0.000000 0.000002 0.000001 0.000000 0.000002 0.000000 0.000001 -0.000001 -0.000000 0.000000 0.000000 0.000001 -0.000002 0.000002 -0.000002 0.000001 -0.000001 -0.000002 4.291896 -1.299547 -3.220119 11.820192 -54.725842 1.944151 -0.000002 4.208008 0.067694 119.682468 -0.000029 0.000084 0.000002 4.447774 0.107697 -19.342245 18.470040 -7.097248 0.186253 0.100284 0.019922 0.000002 -0.000001 -0.000003 0.000000 0.000001 0.000002 0.186253 0.100283 0.019921 0.000001 -0.000001 -0.000003 
